<mxfile host="Electron" modified="2023-04-11T17:27:49.277Z" agent="Mozilla/5.0 (X11; Linux x86_64) AppleWebKit/537.36 (KHTML, like Gecko) draw.io/21.1.2 Chrome/106.0.5249.199 Electron/21.4.3 Safari/537.36" etag="UDUCLS8IC4pu-JuuZAw0" version="21.1.2" type="device">
  <diagram name="PÃ¡gina-1" id="MsHyKun1me260K9sSxfr">
    <mxGraphModel dx="1621" dy="992" grid="1" gridSize="10" guides="1" tooltips="1" connect="1" arrows="1" fold="1" page="1" pageScale="1" pageWidth="827" pageHeight="1169" math="0" shadow="0">
      <root>
        <mxCell id="0" />
        <mxCell id="1" parent="0" />
        <mxCell id="IBp9DCfa0Fd-tD4QT5lH-1" value="chekout" style="rounded=0;whiteSpace=wrap;html=1;fillColor=#ffe6cc;strokeColor=#d79b00;fontStyle=1" vertex="1" parent="1">
          <mxGeometry x="20" y="270" width="120" height="60" as="geometry" />
        </mxCell>
        <mxCell id="IBp9DCfa0Fd-tD4QT5lH-2" value="testing" style="rounded=0;whiteSpace=wrap;html=1;fillColor=#ffe6cc;strokeColor=#d79b00;fontStyle=1" vertex="1" parent="1">
          <mxGeometry x="190" y="270" width="120" height="60" as="geometry" />
        </mxCell>
        <mxCell id="IBp9DCfa0Fd-tD4QT5lH-3" value="checkstyle" style="rounded=0;whiteSpace=wrap;html=1;fillColor=#ffe6cc;strokeColor=#d79b00;fontStyle=1" vertex="1" parent="1">
          <mxGeometry x="359" y="270" width="120" height="60" as="geometry" />
        </mxCell>
        <mxCell id="IBp9DCfa0Fd-tD4QT5lH-4" value="deploy-dependencies" style="rounded=0;whiteSpace=wrap;html=1;fillColor=#ffe6cc;strokeColor=#d79b00;fontStyle=1" vertex="1" parent="1">
          <mxGeometry x="522" y="270" width="120" height="60" as="geometry" />
        </mxCell>
        <mxCell id="IBp9DCfa0Fd-tD4QT5lH-5" value="PMD" style="rounded=0;whiteSpace=wrap;html=1;fillColor=#ffe6cc;strokeColor=#d79b00;fontStyle=1" vertex="1" parent="1">
          <mxGeometry x="687" y="270" width="120" height="60" as="geometry" />
        </mxCell>
        <mxCell id="IBp9DCfa0Fd-tD4QT5lH-6" value="coverage-check" style="rounded=0;whiteSpace=wrap;html=1;fillColor=#ffe6cc;strokeColor=#d79b00;fontStyle=1" vertex="1" parent="1">
          <mxGeometry x="857" y="270" width="120" height="60" as="geometry" />
        </mxCell>
        <mxCell id="IBp9DCfa0Fd-tD4QT5lH-8" value="build-images" style="rounded=0;whiteSpace=wrap;html=1;fillColor=#ffe6cc;strokeColor=#d79b00;fontStyle=1" vertex="1" parent="1">
          <mxGeometry x="1025" y="270" width="120" height="60" as="geometry" />
        </mxCell>
        <mxCell id="IBp9DCfa0Fd-tD4QT5lH-9" value="deploy Kubernetes" style="rounded=0;whiteSpace=wrap;html=1;fillColor=#ffe6cc;strokeColor=#d79b00;fontStyle=1" vertex="1" parent="1">
          <mxGeometry x="1187" y="270" width="120" height="60" as="geometry" />
        </mxCell>
        <mxCell id="IBp9DCfa0Fd-tD4QT5lH-10" value="" style="shape=flexArrow;endArrow=classic;html=1;rounded=0;fillColor=#e3c800;strokeColor=#B09500;" edge="1" parent="1">
          <mxGeometry width="50" height="50" relative="1" as="geometry">
            <mxPoint x="151" y="299.5" as="sourcePoint" />
            <mxPoint x="181" y="299.5" as="targetPoint" />
          </mxGeometry>
        </mxCell>
        <mxCell id="IBp9DCfa0Fd-tD4QT5lH-11" value="" style="shape=flexArrow;endArrow=classic;html=1;rounded=0;fillColor=#e3c800;strokeColor=#B09500;" edge="1" parent="1">
          <mxGeometry width="50" height="50" relative="1" as="geometry">
            <mxPoint x="322" y="299.5" as="sourcePoint" />
            <mxPoint x="352" y="299.5" as="targetPoint" />
          </mxGeometry>
        </mxCell>
        <mxCell id="IBp9DCfa0Fd-tD4QT5lH-12" value="" style="shape=flexArrow;endArrow=classic;html=1;rounded=0;fillColor=#e3c800;strokeColor=#B09500;" edge="1" parent="1">
          <mxGeometry width="50" height="50" relative="1" as="geometry">
            <mxPoint x="489" y="299.5" as="sourcePoint" />
            <mxPoint x="519" y="299.5" as="targetPoint" />
          </mxGeometry>
        </mxCell>
        <mxCell id="IBp9DCfa0Fd-tD4QT5lH-13" value="" style="shape=flexArrow;endArrow=classic;html=1;rounded=0;fillColor=#e3c800;strokeColor=#B09500;" edge="1" parent="1">
          <mxGeometry width="50" height="50" relative="1" as="geometry">
            <mxPoint x="650" y="299.5" as="sourcePoint" />
            <mxPoint x="680" y="299.5" as="targetPoint" />
          </mxGeometry>
        </mxCell>
        <mxCell id="IBp9DCfa0Fd-tD4QT5lH-14" value="" style="shape=flexArrow;endArrow=classic;html=1;rounded=0;fillColor=#e3c800;strokeColor=#B09500;" edge="1" parent="1">
          <mxGeometry width="50" height="50" relative="1" as="geometry">
            <mxPoint x="820" y="299.5" as="sourcePoint" />
            <mxPoint x="850" y="299.5" as="targetPoint" />
          </mxGeometry>
        </mxCell>
        <mxCell id="IBp9DCfa0Fd-tD4QT5lH-15" value="" style="shape=flexArrow;endArrow=classic;html=1;rounded=0;fillColor=#e3c800;strokeColor=#B09500;" edge="1" parent="1">
          <mxGeometry width="50" height="50" relative="1" as="geometry">
            <mxPoint x="990" y="299.5" as="sourcePoint" />
            <mxPoint x="1020" y="299.5" as="targetPoint" />
          </mxGeometry>
        </mxCell>
        <mxCell id="IBp9DCfa0Fd-tD4QT5lH-16" value="" style="shape=flexArrow;endArrow=classic;html=1;rounded=0;fillColor=#e3c800;strokeColor=#B09500;" edge="1" parent="1">
          <mxGeometry width="50" height="50" relative="1" as="geometry">
            <mxPoint x="1154" y="299.5" as="sourcePoint" />
            <mxPoint x="1184" y="299.5" as="targetPoint" />
          </mxGeometry>
        </mxCell>
      </root>
    </mxGraphModel>
  </diagram>
</mxfile>
